# xmcd
# 
# Track frame offsets:
#     150
#     14671
#     32436
#     47463
#     60400
#     74905
#     86371
#     103498
#     122350
#     138364
#     156566
#     168845
#     186708
#     201636
#     220090
# 
# Disc length: 3099
# 
# Revision: 3
# Processed by: cddbd v1.5.2PL0 Copyright (c) Steve Scherf et al.
# Submitted via: fre:ac v1.0.17
# 
DISCID=e00c190f
DTITLE=Varié - Quand Le Country Dit Bonjour
DYEAR=2006
DGENRE=Country
TTITLE0=Daniel Lavoie - Je M'envolerai
TTITLE1=Mario Pelchat - Perce Les Nuages
TTITLE2=Les Respectables - Mille Après Mille
TTITLE3=Dany Bédar - Un Amour Qui Ne Veut Pas Mourir
TTITLE4=Ginette Reno - Un Jour À La Fois
TTITLE5=Jonathan Painchaud - Je Chante À Cheval
TTITLE6=Jorane - La Fabrique
TTITLE7=Mara Tremblay - Un Coin Du Ciel
TTITLE8=Marc Dupré - Dans Ma Belle Petite Maison
TTITLE9=Cindy Daniel - Une Promesse
TTITLE10=Bourbon Gauthier - Au Bout Du Monde
TTITLE11=Marie Denise Pelletier - Simple Passager
TTITLE12=Jean-Francois Breau - Vote Colombe
TTITLE13=Tous - Quand Le Soleil Dit Bonjour Aux Montagnes
TTITLE14=Tous - Le Sentier De Neige
EXTD=
EXTT0=
EXTT1=
EXTT2=
EXTT3=
EXTT4=
EXTT5=
EXTT6=
EXTT7=
EXTT8=
EXTT9=
EXTT10=
EXTT11=
EXTT12=
EXTT13=
EXTT14=
PLAYORDER=
